<svg version="1.1"
     id="Ebene_1" xmlns:cc="http://creativecommons.org/ns#" xmlns:dc="http://purl.org/dc/elements/1.1/" xmlns:rdf="http://www.w3.org/1999/02/22-rdf-syntax-ns#" xmlns:svg="http://www.w3.org/2000/svg"
     xmlns="http://www.w3.org/2000/svg" xmlns:xlink="http://www.w3.org/1999/xlink" x="0px" y="0px" viewBox="0 0 272.2 61.6"
     style="enable-background:new 0 0 272.2 61.6;" xml:space="preserve">
<style type="text/css">
    .st0{fill:#FFFFFF;}
    .st1{fill:#000000;}
</style>
<g>
	<path class="st0" d="M268.1,7.5C265,3.8,260,1.8,254,1.8h-12.7c-0.4,0-0.8,0.1-1.2,0.2c-0.4-0.1-0.8-0.2-1.2-0.2h-8.6
		c-2,0-3.7,1.4-4,3.4l-0.4,2.1l-1.9-3.4c-0.7-1.3-2.1-2.1-3.6-2.1h-8.9c-2,0-3.7,1.4-4,3.4l-0.8,4.8l-0.9-4.9
		c-0.4-1.9-2.1-3.3-4-3.3h-10.8c-1.5,0-2.9,0.8-3.6,2.1l-1.8,3.4c-0.2-0.3-0.4-0.6-0.7-0.9c-3.5-3.3-8.4-5.1-14.2-5.1
		c-4.9,0-9.2,1.5-12.4,4.2c-1.7-1.8-4.7-3.8-9.8-3.8h-15.2c-0.3,0-0.6,0-0.8,0.1c-0.3-0.1-0.6-0.1-0.9-0.1h-20.9h-0.6h-9.2
		c-1.6,0-3,0.9-3.7,2.3l-3.6,7.3l-0.9-6.1c-0.3-2-2-3.5-4.1-3.5h-9.8c-1.2,0-2.4,0.5-3.2,1.5c-0.8,1-1.1,2.2-0.9,3.4l1.9,9.9H70
		L67.8,5.1c-0.4-1.9-2.1-3.3-4-3.3H53c-1.5,0-2.9,0.8-3.6,2.1l-2.6,4.7l0.4-2c0.2-1.2-0.1-2.4-0.9-3.4c-0.8-0.9-1.9-1.5-3.1-1.5
		H31.2c-1.5,0-2.9,0.8-3.6,2.1l-1.9,3.5l-0.4-2.3c-0.4-1.9-2.1-3.3-4-3.3H9.4c-2,0-3.7,1.4-4,3.4l-5,28.3c-0.2,1.2,0.1,2.4,0.9,3.4
		c0.8,0.9,1.9,1.5,3.1,1.5H13c1.3,0,2.4-0.6,3.2-1.5c0.8,0.9,1.9,1.5,3.2,1.5h3.8c1.2,0,2.4-0.6,3.2-1.5c0,0,0,0,0,0
		c0.8,0.9,1.9,1.5,3.1,1.5h8h0.6h9.2c1.6,0,3-0.9,3.7-2.3l0.5-1h4.1c0.4,1.9,2.1,3.3,4,3.3h9.8c1.2,0,2.4-0.5,3.2-1.5
		c0.8-1,1.1-2.2,0.9-3.4l-0.4-2.2h6.2c0.1,0,0.2,0,0.3,0l0.7,3.8c0.4,1.9,2.1,3.3,4,3.3H95c1.5,0,2.9-0.8,3.6-2.1l2.6-4.7l-0.4,2
		c-0.2,1.2,0.1,2.4,0.9,3.4c0.8,0.9,1.9,1.5,3.1,1.5h21.5c0.3,0,0.6,0,0.8-0.1c0.3,0.1,0.6,0.1,0.9,0.1h8.6c1.5,0,2.8-0.8,3.5-2
		c0.7,1.2,2.1,2,3.5,2h9.8c1.1,0,2.1-0.4,2.9-1.2c2.7,1.1,5.8,1.7,9.4,1.7c2.7,0,5.1-0.4,7.4-1.1c0.6,0.4,1.4,0.6,2.2,0.6h9.8
		c1.6,0,3-0.9,3.7-2.3l0.5-1h4.1c0.4,1.9,2.1,3.3,4,3.3h9.2h0.6h8c2,0,3.7-1.4,4-3.4l0.5-2.9l2.3,4.2c0.7,1.3,2.1,2.1,3.6,2.1h8.3
		c0.4,0,0.8-0.1,1.2-0.2c0.4,0.1,0.8,0.2,1.2,0.2H249c5.4,0,10.3-1.6,14.2-4.5c4.2-3.2,6.9-7.7,7.9-13C272,15.5,271,10.9,268.1,7.5z
		"/>
	<path class="st1" d="M52.6,5.5L38,32.2l4.7-26.7H30.9l-7.4,13.6L20.9,5.5H9L4,33.8h8.6l3-17l3.3,17h3.8l9.3-17l-3,17h8h0.6h9.2
		l1.6-3.3h10.2l0.4,3.3h9.8L63.4,5.5H52.6z M52.1,23l4.4-9.1l1.2,9.1H52.1z"/>
	<path class="st0" d="M145.3,13H140l-0.8,4.5h5.2c1.4,0,2.9-0.7,3.2-2.2C148,13.7,146.7,13,145.3,13z"/>
	<polygon class="st0" points="189.9,23 195.6,23 194.4,13.9 	"/>
	<path class="st0" d="M252.4,13h-4.1l-2.4,13.4h4.1c4.3,0,7.4-3.1,8-6.7C258.7,15.8,257,13,252.4,13z"/>
	<polygon class="st1" points="68.5,26.7 78.8,26.7 79.9,20.4 69.7,20.4 	"/>
	<polygon class="st1" points="127.6,23.3 128.9,15.8 116.3,15.8 116.8,13 129.7,13 131,5.5 110.1,5.5 109.5,5.5 100.3,5.5
		90.9,24.6 88.1,5.5 78.3,5.5 83.8,33.8 94.6,33.8 109.2,7.1 104.5,33.8 126.1,33.8 127.4,26.3 114.4,26.3 115,23.3 	"/>
	<path class="st1" d="M156.4,15.2c0.9-5.3-1.9-9.7-8.5-9.7h-15.2l-5,28.3h8.6l1.6-8.9h3.1l2.3,8.9h9.8l-3.4-10
		C152.2,22.7,155.5,20.1,156.4,15.2z M147.7,15.2c-0.3,1.6-1.8,2.2-3.2,2.2h-5.2L140,13h5.2C146.7,13,148,13.7,147.7,15.2z"/>
	<path class="st1" d="M229.9,5.5l-2.4,13.4L220,5.5h-8.9l-4.7,26.7l-5.2-26.7h-10.8L178.7,27c0.3-0.8,0.6-1.6,0.7-2.5
		c1.9-10.5-14.3-8.2-13.9-10.9c0.1-0.7,0.7-1.3,2.4-1.3c2.7,0,5.7,0.9,7.9,2.8l5.7-6.1c-2.8-2.6-6.7-3.9-11.4-3.9
		c-7.8,0-12.6,4.6-13.4,9.4c-2,11.2,14.4,8.4,13.9,11.1c-0.2,1.1-1.8,1.5-3.4,1.5c-3.8,0-6.7-1.6-8.5-3.6l-5.6,6.4
		c2.5,2.7,6.4,4.5,12.4,4.5c5.5,0,9.7-1.9,12.1-5.2l-2.6,4.7h9.8l1.6-3.3h10.2l0.4,3.3h9.2h0.6h8l2.5-14.3l7.9,14.3h8.3l5-28.3
		H229.9z M189.9,23l4.4-9.1l1.2,9.1H189.9z"/>
	<path class="st1" d="M253.6,5.5h-12.7l-5,28.3h12.7c8.9,0,16.4-5.1,18-14.2C268.3,10.6,262.6,5.5,253.6,5.5z M258,19.6
		c-0.6,3.6-3.7,6.7-8,6.7h-4.1l2.4-13.4h4.1C257,13,258.7,15.8,258,19.6z"/>
</g>
</svg>